<svg xmlns="http://www.w3.org/2000/svg" width="1110" height="109" viewBox="0 0 1110 109"><defs><style>.a,.b{fill:#ccc;}.c{fill:#f5f5f5;}.d{fill:#a7a7a7;}.e,.f{stroke:none;}.f{fill:rgba(3,3,3,0.18);}</style></defs><g transform="translate(-410 -2748)"><path class="a" d="M-1502,105.975a11.571,11.571,0,0,1-12-12v-7l-49.039-7.686s-470.714-13.5-475.419-13.5-4.739-3.375,0-3.375c3.236,0,9.506.087,496.917,7.592l2.557,1.687,39.985.281v-1h6l1.329-67.634-98.183.844s0-1.688,2.561-1.688,47.811-2.53,47.811-2.53h104.269s45.249,2.53,47.811,2.53,2.561,1.688,2.561,1.688l-98.182-.844,1.116,67.509,5.908.125v1l39.985-.281,2.557-1.687c487.41-7.5,494.68-7.592,497.917-7.592,4.739,0,4.705,3.375,0,3.375s-475.419,13.5-475.419,13.5L-1460,86.98v7c0,7.139-4.511,12-13,12Z" transform="translate(2452 2748.025)"/><g class="b" transform="translate(938 2820)"><path class="e" d="M11,0H43A11,11,0,0,1,54,11V23A11,11,0,0,1,43,34H11A11,11,0,0,1,0,23V11A11,11,0,0,1,11,0Z"/><path class="f" d="M 11 1 C 5.485980987548828 1 1 5.485979080200195 1 11 L 1 23 C 1 28.51401901245117 5.485980987548828 33 11 33 L 43 33 C 48.51401901245117 33 53 28.51401901245117 53 23 L 53 11 C 53 5.485979080200195 48.51401901245117 1 43 1 L 11 1 M 11 0 L 43 0 C 49.07513046264648 0 54 4.924869537353516 54 11 L 54 23 C 54 29.07513046264648 49.07513046264648 34 43 34 L 11 34 C 4.924858093261719 34 0 29.07513046264648 0 23 L 0 11 C 0 4.924869537353516 4.924858093261719 0 11 0 Z"/></g><g class="c" transform="translate(953 2824)"><path class="e" d="M12,0A12,12,0,1,1,0,12,12,12,0,0,1,12,0Z"/><path class="f" d="M 12 1 C 9.061790466308594 1 6.299449920654297 2.144199371337891 4.221820831298828 4.221820831298828 C 2.144199371337891 6.299449920654297 1 9.061790466308594 1 12 C 1 14.93820953369141 2.144199371337891 17.7005500793457 4.221820831298828 19.77817916870117 C 6.299449920654297 21.85580062866211 9.061790466308594 23 12 23 C 14.93820953369141 23 17.7005500793457 21.85580062866211 19.77817916870117 19.77817916870117 C 21.85580062866211 17.7005500793457 23 14.93820953369141 23 12 C 23 9.061790466308594 21.85580062866211 6.299449920654297 19.77817916870117 4.221820831298828 C 17.7005500793457 2.144199371337891 14.93820953369141 1 12 1 M 12 0 C 18.62742042541504 0 24 5.372579574584961 24 12 C 24 18.62742042541504 18.62742042541504 24 12 24 C 5.372579574584961 24 0 18.62742042541504 0 12 C 0 5.372579574584961 5.372579574584961 0 12 0 Z"/></g><path class="d" d="M1,0A1,1,0,0,1,2,1V21a1,1,0,0,1-2,0V1A1,1,0,0,1,1,0Z" transform="translate(964 2835)"/></g></svg>