<svg xmlns="http://www.w3.org/2000/svg" width="162" height="24" viewBox="0 0 162 24"><defs><style>.a{fill:#fff;}.b{fill:#015bbb;}.c{fill:#fed500;}</style></defs><g transform="translate(-32 -28)"><g transform="translate(-847 -82)"><path class="a" d="M611.16,98V82.252h-.1l-1.725,3.507-4.6,8.492-4.5-8.458-1.793-3.782h-.1V98H593.5V74h5.446l5.786,11.244h.067L610.517,74H616V98Zm-36.442-.765a8.367,8.367,0,0,1-3.2-2.276,10.582,10.582,0,0,1-2.045-3.757,19,19,0,0,1,0-10.4,10.582,10.582,0,0,1,2.045-3.757,8.377,8.377,0,0,1,3.2-2.277,11.679,11.679,0,0,1,8.311,0,8.374,8.374,0,0,1,3.2,2.277,10.6,10.6,0,0,1,2.045,3.757,19.018,19.018,0,0,1,0,10.4,10.6,10.6,0,0,1-2.045,3.757,8.364,8.364,0,0,1-3.2,2.276,11.667,11.667,0,0,1-8.311,0Zm.61-17.252a6.448,6.448,0,0,0-1.269,4.288v3.457a6.448,6.448,0,0,0,1.269,4.288,4.95,4.95,0,0,0,7.091,0,6.449,6.449,0,0,0,1.27-4.288V84.271a6.449,6.449,0,0,0-1.27-4.288,4.95,4.95,0,0,0-7.091,0Zm-23.9,17.268a8.314,8.314,0,0,1-3.179-2.226,10.288,10.288,0,0,1-2.032-3.69,16.687,16.687,0,0,1-.722-5.169,17.21,17.21,0,0,1,.722-5.2,10.927,10.927,0,0,1,2.032-3.823,8.492,8.492,0,0,1,3.179-2.344,10.591,10.591,0,0,1,4.2-.8,9.611,9.611,0,0,1,5.245,1.313,9.027,9.027,0,0,1,3.311,4.138l-4.294,2.261a5.19,5.19,0,0,0-1.426-2.344,4.076,4.076,0,0,0-2.835-.881,4.554,4.554,0,0,0-3.524,1.446,6.012,6.012,0,0,0-1.328,4.205v3.723a6.012,6.012,0,0,0,1.328,4.205,4.554,4.554,0,0,0,3.524,1.446,4.155,4.155,0,0,0,2.933-1.014,6.171,6.171,0,0,0,1.622-2.443l4.065,2.393a10.275,10.275,0,0,1-3.36,4.1A9,9,0,0,1,555.628,98,11.194,11.194,0,0,1,551.432,97.251ZM521.5,98V74h9a11.822,11.822,0,0,1,4.31.757,8.68,8.68,0,0,1,3.319,2.252,10.3,10.3,0,0,1,2.121,3.748,18.641,18.641,0,0,1,0,10.487,10.3,10.3,0,0,1-2.121,3.748,8.68,8.68,0,0,1-3.319,2.252A11.822,11.822,0,0,1,530.5,98Zm5.2-4.642h3.8a5.008,5.008,0,0,0,3.66-1.306,5.673,5.673,0,0,0,1.334-4.2V84.143a5.673,5.673,0,0,0-1.334-4.2,5.008,5.008,0,0,0-3.66-1.306h-3.8ZM511.488,98l-1.744-5.708h-8.128L499.872,98H494.5l8.024-24h6.558L517,98Zm-8.616-10.144h5.581l-2.721-9.111h-.174Zm-25.843,9.552a6.736,6.736,0,0,1-2.908-1.825,7.277,7.277,0,0,1-1.625-3.144,18.067,18.067,0,0,1-.5-4.513V74h5.064V88.468a5.89,5.89,0,0,0,.992,3.735,5.081,5.081,0,0,0,6.638,0,5.89,5.89,0,0,0,.992-3.735V74h5.064V87.927a18.107,18.107,0,0,1-.5,4.513,7.277,7.277,0,0,1-1.625,3.144,6.734,6.734,0,0,1-2.909,1.825,16.256,16.256,0,0,1-8.691,0Z" transform="translate(407 36)"/></g><rect class="b" width="2" height="12" transform="translate(192 28)"/><rect class="c" width="2" height="12" transform="translate(192 40)"/></g></svg>