<svg xmlns="http://www.w3.org/2000/svg" width="64" height="48" viewBox="0 0 64 48"><defs><style>.a{fill:#030303;opacity:0.1;}</style></defs><path class="a" d="M37.222-1368.015a11.794,11.794,0,0,1-3.112-8.6v-4.259a37.762,37.762,0,0,1,4.423-17.775,42.219,42.219,0,0,1,11.959-14.171H64.579a73.47,73.47,0,0,0-8.928,9.912,35.509,35.509,0,0,0-5.488,11.057q10.157,1.474,10.157,10.977v4.259a11.8,11.8,0,0,1-3.114,8.6q-3.11,3.194-9.992,3.2T37.222-1368.015Zm-33.528,0a11.8,11.8,0,0,1-3.114-8.6v-4.259A37.764,37.764,0,0,1,5-1398.649a42.219,42.219,0,0,1,11.959-14.171H31.051a73.47,73.47,0,0,0-8.928,9.912,35.47,35.47,0,0,0-5.488,11.057q10.157,1.474,10.155,10.977v4.259a11.794,11.794,0,0,1-3.112,8.6q-3.113,3.194-9.993,3.2T3.694-1368.015Z" transform="translate(-0.58 1412.82)"/></svg>