<svg xmlns="http://www.w3.org/2000/svg" width="160" height="74.222" viewBox="0 0 160 74.222"><defs><style>.a,.e{fill:none;}.a{opacity:0;}.b,.d{fill:#fff;}.b{opacity:0.1;}.c{fill:#e9d076;}.e{stroke:#fff;stroke-width:3px;stroke-dasharray:6 2;}</style></defs><g transform="translate(-1619 -1447)"><rect class="a" width="160" height="72" transform="translate(1619 1447)"/><path class="b" d="M-1909,72h-1V59h-14V72h-1V59h-14V72h-1V59h-14V72h-1V59h-14V72h-1V59h-4.121l.577-1H-1970V47.355l1,.577V58h14V44h-10.12l.578-1H-1955V29h-3.121l.577-1H-1955V20h1v8h14V14h-8V13h8V0h1V13h13v1h-13V28h13v1h-13v8h-1V29h-14V43h8v1h-8V58h14V50h1v8h14V53h1v5h14V53h1v5h14V53h1v5h12v1h-12V72h-1V59h-14V72Zm-90,0h-1V59h-5V58h5V44h-2.121l.578-1H-2000V35h1v8h14V29h-8V28h8V14h-14v8h-1V14h-14V28h8v1h-8V43h3.219l-.578,1H-2014v5h-1V44h-12V43h12V29h-12V28h12V14h-12V13h12V0h1V13h14V0h1V13h14V0h1V13h14V0h1V13h8v1h-8V28h2.219l-.577,1H-1969v9.694l-1-.577V29h-14V43h10.219l-.578,1H-1984V58h1.219l-.577,1H-1984v8h-1V59h-.434l-.364-1h.8V44h-14V58h4.688l.364,1H-1999V72Zm15-58V28h14V14Zm-30,58h-1V68h1v4Zm-10-13h-3V58h3v1Zm142-15h-10V43h10v1Zm0-15h-10V28h10v1Zm0-15h-10V13h10v1Zm-12-6h-1V0h1V8Zm-15,0h-1V0h1V8Zm-15,0h-1V0h1V8Zm-30-1h-1V0h1V7Z" transform="translate(3654 1447)"/><path class="c" d="M-2042,11.2A11.094,11.094,0,0,1-2031,0a11.094,11.094,0,0,1,11,11.2c0,8.4-11,20.8-11,20.8S-2042,19.6-2042,11.2Zm3.142,0c0,4.559,4.589,11.536,7.858,15.808,3.33-4.3,7.856-11.2,7.856-15.808a7.932,7.932,0,0,0-7.856-8A7.933,7.933,0,0,0-2038.858,11.2Zm3.929,0a3.965,3.965,0,0,1,3.929-4,3.965,3.965,0,0,1,3.929,4,3.965,3.965,0,0,1-3.929,4A3.965,3.965,0,0,1-2034.929,11.2Z" transform="translate(3776 1459)"/><circle class="d" cx="6.5" cy="6.5" r="6.5" transform="translate(1633 1499)"/><circle class="d" cx="3.5" cy="3.5" r="3.5" transform="translate(1651 1472)"/><circle class="d" cx="3.5" cy="3.5" r="3.5" transform="translate(1666 1514)"/><circle class="d" cx="3.5" cy="3.5" r="3.5" transform="translate(1696 1457)"/><circle class="d" cx="3.5" cy="3.5" r="3.5" transform="translate(1711 1487)"/><path class="e" d="M3688.234,1505.674,3703.5,1475.5l15,42,30-57,15,30H3793" transform="translate(-2049)"/></g></svg>