<svg xmlns="http://www.w3.org/2000/svg" width="160" height="72" viewBox="0 0 160 72"><defs><style>.a{fill:none;}.b{fill:#fff;}.c{fill:#e9d076;}</style></defs><g transform="translate(-534 -1954)"><rect class="a" width="160" height="72" transform="translate(534 1954)"/><g transform="translate(-80.745 1608.48)"><path class="b" d="M-1967.153-1540.58a13.915,13.915,0,0,1-4.1-9.9h2V-1586.5a2.942,2.942,0,0,1,2.88-3h2.419l1.339-2.413-6.638-4.082v-9.492a2.943,2.943,0,0,1,2.88-3h18.24a2.937,2.937,0,0,1,2.879,3v9.492l-6.638,4.082,1.338,2.413h2.421a2.936,2.936,0,0,1,2.879,3v36.021h2a13.91,13.91,0,0,1-4.1,9.9,13.914,13.914,0,0,1-9.9,4.1A13.916,13.916,0,0,1-1967.153-1540.58Zm2.126-2.126a10.926,10.926,0,0,0,7.775,3.226,11.019,11.019,0,0,0,10.583-8h-21.171A10.957,10.957,0,0,0-1965.027-1542.705Zm-1.345-41.794v31.972a1.963,1.963,0,0,0,1.862,2h14.516a1.957,1.957,0,0,0,1.862-2V-1584.5a1.962,1.962,0,0,0-1.922-2h-14.4A1.967,1.967,0,0,0-1966.372-1584.5Zm0-18.984v5.854l7.691,4.622-1.946,3.51h6.748l-.508-.914-1.44-2.6,7.694-4.623v-5.854a1.961,1.961,0,0,0-1.922-2h-14.4A1.967,1.967,0,0,0-1966.372-1603.483Z" transform="translate(2611.999 1954)"/><path class="c" d="M6.377-25.932H4.241v2.918H2.924v-7H4.241v2.828H6.377v-2.828H7.694v7H6.377Zm2.569,2.918v-7h3.978v1.254H10.263v1.574h2.256v1.254H10.263v1.665h2.661v1.254Z" transform="translate(628.731 368.596) rotate(90)"/></g><g transform="translate(-40.745 1608.48)"><path class="b" d="M-1967.153-1540.58a13.915,13.915,0,0,1-4.1-9.9h2V-1586.5a2.942,2.942,0,0,1,2.88-3h2.419l1.339-2.413-6.638-4.082v-9.492a2.943,2.943,0,0,1,2.88-3h18.24a2.937,2.937,0,0,1,2.879,3v9.492l-6.638,4.082,1.338,2.413h2.421a2.936,2.936,0,0,1,2.879,3v36.021h2a13.91,13.91,0,0,1-4.1,9.9,13.914,13.914,0,0,1-9.9,4.1A13.916,13.916,0,0,1-1967.153-1540.58Zm2.126-2.126a10.926,10.926,0,0,0,7.775,3.226,11.019,11.019,0,0,0,10.583-8h-21.171A10.957,10.957,0,0,0-1965.027-1542.705Zm-1.345-41.794v31.972a1.963,1.963,0,0,0,1.862,2h14.516a1.957,1.957,0,0,0,1.862-2V-1584.5a1.962,1.962,0,0,0-1.922-2h-14.4A1.967,1.967,0,0,0-1966.372-1584.5Zm0-18.984v5.854l7.691,4.622-1.946,3.51h6.748l-.508-.914-1.44-2.6,7.694-4.623v-5.854a1.961,1.961,0,0,0-1.922-2h-14.4A1.967,1.967,0,0,0-1966.372-1603.483Z" transform="translate(2611.999 1954)"/><path class="c" d="M6.677-25.932H4.355v2.918H2.924v-7H4.355v2.828H6.677v-2.828H8.109v7H6.677ZM9.47-23.014v-7h4.324v1.254H10.9v1.574h2.452v1.254H10.9v1.665h2.893v1.254Zm9.389,0-.43-1.715H16.286l-.43,1.715H14.485l1.982-7h1.822l1.982,7ZM17.647-27.5l-.22-1.213h-.16l-.22,1.213-.41,1.615h1.441Zm5.605-1.264v5.746H21.821V-28.76H20.15v-1.254h4.774v1.254Z" transform="translate(627.731 368.596) rotate(90)"/></g><g transform="translate(-0.746 1608.48)"><path class="b" d="M-1967.153-1540.58a13.915,13.915,0,0,1-4.1-9.9h2V-1586.5a2.942,2.942,0,0,1,2.88-3h2.419l1.339-2.413-6.638-4.082v-9.492a2.943,2.943,0,0,1,2.88-3h18.24a2.937,2.937,0,0,1,2.879,3v9.492l-6.638,4.082,1.338,2.413h2.421a2.936,2.936,0,0,1,2.879,3v36.021h2a13.91,13.91,0,0,1-4.1,9.9,13.914,13.914,0,0,1-9.9,4.1A13.916,13.916,0,0,1-1967.153-1540.58Zm2.126-2.126a10.926,10.926,0,0,0,7.775,3.226,11.019,11.019,0,0,0,10.583-8h-21.171A10.957,10.957,0,0,0-1965.027-1542.705Zm-1.345-41.794v31.972a1.963,1.963,0,0,0,1.862,2h14.516a1.957,1.957,0,0,0,1.862-2V-1584.5a1.962,1.962,0,0,0-1.922-2h-14.4A1.967,1.967,0,0,0-1966.372-1584.5Zm0-18.984v5.854l7.691,4.622-1.946,3.51h6.748l-.508-.914-1.44-2.6,7.694-4.623v-5.854a1.961,1.961,0,0,0-1.922-2h-14.4A1.967,1.967,0,0,0-1966.372-1603.483Z" transform="translate(2612 1954)"/><path class="c" d="M7.577-27.175l.08-1.134H7.5l-.428,1.076L5.913-24.781,4.767-27.234,4.339-28.31H4.18l.08,1.134v3.529H2.924v-6.767H4.419L5.365-28.4l.518,1.445h.1L6.5-28.4l.927-2.017H8.913v6.767H7.577Zm2.7,3.529v-6.767h4.3V-29.2H11.7v1.522h2.441v1.212H11.7v1.609h2.88v1.212Zm5.47-6.767h2.441a3.227,3.227,0,0,1,1.141.189,2.056,2.056,0,0,1,.852.6,2.815,2.815,0,0,1,.538,1.047,5.524,5.524,0,0,1,.189,1.551,5.524,5.524,0,0,1-.189,1.551,2.815,2.815,0,0,1-.538,1.047,2.056,2.056,0,0,1-.852.6,3.227,3.227,0,0,1-1.141.189H15.748Zm2.441,5.555q1.206,0,1.206-1.357v-1.629q0-1.357-1.206-1.357H17.173v4.343ZM21.8-23.646v-1.1h.817v-4.576H21.8v-1.1h3.059v1.1h-.817v4.576h.817v1.1Zm6.736.116a3.358,3.358,0,0,1-1.141-.184,2.117,2.117,0,0,1-.877-.591,2.838,2.838,0,0,1-.568-1.066,5.494,5.494,0,0,1-.2-1.609,5.645,5.645,0,0,1,.2-1.624,3.028,3.028,0,0,1,.568-1.1,2.164,2.164,0,0,1,.877-.625,3.136,3.136,0,0,1,1.141-.2,2.494,2.494,0,0,1,1.48.39,2.794,2.794,0,0,1,.892,1.181l-1.236.62a3.749,3.749,0,0,0-.135-.4.9.9,0,0,0-.2-.31.919.919,0,0,0-.324-.2,1.356,1.356,0,0,0-.473-.073,1.242,1.242,0,0,0-.937.351,1.459,1.459,0,0,0-.339,1.051v1.772a1.459,1.459,0,0,0,.339,1.051,1.242,1.242,0,0,0,.937.351,1.288,1.288,0,0,0,.483-.082,1.009,1.009,0,0,0,.344-.223,1.184,1.184,0,0,0,.229-.33,3.167,3.167,0,0,0,.159-.412l1.176.659a4.119,4.119,0,0,1-.4.676,2.315,2.315,0,0,1-.5.5,2.066,2.066,0,0,1-.653.313A3.036,3.036,0,0,1,28.533-23.53Z" transform="translate(628.216 368.596) rotate(90)"/></g></g></svg>