<svg xmlns="http://www.w3.org/2000/svg" width="160" height="72" viewBox="0 0 160 72"><defs><style>.a,.d{fill:none;}.b{fill:#e9d076;fill-rule:evenodd;}.c{fill:#fff;}.d{stroke:#fff;stroke-width:3px;stroke-dasharray:6 2;}</style></defs><g transform="translate(-510 -1958)"><rect class="a" width="160" height="72" transform="translate(510 1958)"/><path class="b" d="M613.452,383a1.6,1.6,0,0,1-1.536-1.172,1.636,1.636,0,0,1,.676-1.825l7.936-5.133h-9.507c-5.769,0-5.64.169-11.31-.484l-5.774-1.173a1.6,1.6,0,0,1-1.116-.867l-1.6-3.252a1.651,1.651,0,0,1,0-1.455l1.6-3.253a1.6,1.6,0,0,1,1.116-.865l5.619-1.142-6.458-8.917a1.648,1.648,0,0,1-.021-1.636,1.6,1.6,0,0,1,1.392-.825h6.4a1.591,1.591,0,0,1,1.25.609l8.437,9.961,10.559-.37-3.825-2.916a1.643,1.643,0,0,1-.558-1.814,1.6,1.6,0,0,1,1.518-1.112h8a1.583,1.583,0,0,1,.67.149l10.889,5.108,7.792-.273c6.365,0,11.294-.207,16.151-2.057,6.477-2.467,9.381-2.1,15.237,1.335l9.441,7.463a1.64,1.64,0,0,1,.536,1.8l-.87,2.654a4.8,4.8,0,0,1-4.554,3.336c-8.046-.007-31.76,0-41,0l-5.132,2.434c-3.986,2.338-5.562,2.633-11.687,5.543a1.582,1.582,0,0,1-.673.15h-9.6Zm5.493-3.252h3.75l17.142-8.131h-8.321Zm28.1-11.382a1.6,1.6,0,0,1,1.562,1.273,1.636,1.636,0,0,1-.886,1.826l-.322.153h34.138a1.6,1.6,0,0,0,1.517-1.112l.513-1.563-8.548-6.756c-4.875-2.862-6.713-2.928-12.147-.856-6.512,2.478-13.936,2.261-17.164,2.261l-41.861,1.467v6.559h21.705l4.635-3a1.578,1.578,0,0,1,.86-.254Zm-51.717-1.814-.893,1.814.893,1.813,5.318,1.081v-5.789Zm7.634-4.716,3.6-.126-6.468-7.459h-2.805Zm23.244-.815,4.49-.157-4.809-2.254h-2.836Z" transform="translate(-49.049 1607)"/><g transform="translate(580 2010)"><path class="c" d="M-2022,20a32.382,32.382,0,0,1-14.142-2.929c-3.777-1.889-5.858-4.4-5.858-7.071s2.08-5.182,5.858-7.071A32.381,32.381,0,0,1-2022,0a32.384,32.384,0,0,1,14.143,2.929C-2004.08,4.818-2002,7.329-2002,10s-2.08,5.182-5.858,7.071A32.385,32.385,0,0,1-2022,20Zm0-17.5c-9.374,0-17,3.364-17,7.5s7.626,7.5,17,7.5,17-3.364,17-7.5S-2012.626,2.5-2022,2.5Z" transform="translate(2042 0)"/><ellipse class="c" cx="6" cy="4.5" rx="6" ry="4.5" transform="translate(14 5.5)"/></g><path class="d" d="M2662.989,2017.562l-14-36" transform="translate(-2044.489 2.438)"/><path class="d" d="M2648.989,2017.562l14-36" transform="translate(-2067.489 2.438)"/></g></svg>