<svg xmlns="http://www.w3.org/2000/svg" width="160" height="72" viewBox="0 0 160 72"><defs><style>.a{fill:none;}.b{fill:#fff;}.c{fill:#e9d076;}</style></defs><g transform="translate(-1329 -1944)"><rect class="a" width="160" height="72" transform="translate(1329 1944)"/><path class="b" d="M-2030.932,33.61a20.969,20.969,0,0,0,10.888-10.177l-2.542-1.055,1.082-2.614,2.548,1.057a21.116,21.116,0,0,0,1.058-5.368h-5.575V12.624h5.575a21.162,21.162,0,0,0-1.057-5.368l-2.547,1.057-1.085-2.616,2.54-1.055A21.215,21.215,0,0,0-2023.082.1l-3.938,3.945-2-2,3.938-3.946c-.192-.169-.39-.337-.586-.5a21.189,21.189,0,0,0-3.953-2.545l-1.053,2.545-2.609-1.084,1.053-2.554a21.016,21.016,0,0,0-5.359-1.06v5.584h-2.824V-7.1a20.947,20.947,0,0,0-5.359,1.06l1.056,2.552-2.613,1.086-1.052-2.545A21.207,21.207,0,0,0-2052.812-2h-4.051c.181-.2.344-.377.5-.538a23.868,23.868,0,0,1,16.133-7.43c.393-.02.807-.031,1.232-.031a24.046,24.046,0,0,1,24,24.038,23.853,23.853,0,0,1-1.752,9.012,24.031,24.031,0,0,1-2.062,3.965,24.162,24.162,0,0,1-2.735,3.491,24.4,24.4,0,0,1-3.322,2.93,24.227,24.227,0,0,1-3.824,2.282,24.028,24.028,0,0,1-4.239,1.551A6.934,6.934,0,0,0-2030.932,33.61ZM-2039,22.244v0l-4.359-6.55L-2039,.407l4.361,15.286-4.361,6.55Zm0-11.543h0l-1.285,4.51,1.285,1.933,1.286-1.933L-2039,10.7Z" transform="translate(3482 1961.001)"/><path class="c" d="M-2019.6,269a1.6,1.6,0,0,1-1.536-1.172,1.638,1.638,0,0,1,.677-1.826l7.936-5.132h-9.507c-5.77,0-5.64.169-11.31-.485l-5.774-1.173a1.608,1.608,0,0,1-1.117-.867l-1.6-3.252a1.649,1.649,0,0,1,0-1.455l1.6-3.252a1.6,1.6,0,0,1,1.117-.866l5.618-1.142-6.458-8.916a1.648,1.648,0,0,1-.021-1.637,1.6,1.6,0,0,1,1.392-.825h6.4a1.592,1.592,0,0,1,1.25.609l8.438,9.961,10.559-.37-3.825-2.915a1.642,1.642,0,0,1-.558-1.815,1.6,1.6,0,0,1,1.518-1.112h8a1.586,1.586,0,0,1,.671.149l10.889,5.108,7.792-.273c6.365,0,11.295-.207,16.151-2.057,6.477-2.468,9.381-2.1,15.237,1.335l9.442,7.463a1.64,1.64,0,0,1,.536,1.8l-.87,2.654a4.8,4.8,0,0,1-4.554,3.336c-8.046-.007-31.761,0-41,0l-5.132,2.434c-3.986,2.338-5.562,2.633-11.688,5.543A1.574,1.574,0,0,1-2010,269Zm5.494-3.252h3.75l17.143-8.13h-8.322Zm28.1-11.382a1.606,1.606,0,0,1,1.562,1.274,1.635,1.635,0,0,1-.885,1.826l-.322.153h34.139a1.6,1.6,0,0,0,1.517-1.112l.513-1.563-8.548-6.757c-4.876-2.861-6.713-2.927-12.148-.856-6.508,2.479-13.936,2.262-17.164,2.262l-41.862,1.467v6.559h21.706l4.635-3a1.579,1.579,0,0,1,.859-.255Zm-51.718-1.814-.892,1.814.892,1.814,5.319,1.081v-5.789Zm7.634-4.716,3.6-.126-6.468-7.459h-2.806Zm23.248-.815,4.49-.157-4.805-2.254H-2010Z" transform="translate(3397 1738)"/><rect class="b" width="10" height="3" transform="translate(1419 1963)"/><rect class="b" width="14" height="3" transform="translate(1415 1969)"/><rect class="b" width="8" height="3" transform="translate(1421 1975)"/></g></svg>